<?xml version="1.0" standalone="no"?>
<!DOCTYPE svg PUBLIC "-//W3C//DTD SVG 20010904//EN"
 "http://www.w3.org/TR/2001/REC-SVG-20010904/DTD/svg10.dtd">
<svg version="1.0" xmlns="http://www.w3.org/2000/svg"
 width="512.000000pt" height="512.000000pt" viewBox="0 0 512.000000 512.000000"
 preserveAspectRatio="xMidYMid meet">
<metadata>
Created by potrace 1.11, written by Peter Selinger 2001-2013
</metadata>
<g transform="translate(0.000000,512.000000) scale(0.100000,-0.100000)"
fill="#000000" stroke="none">
<path d="M2379 5116 c-2 -2 -40 -6 -83 -10 -44 -4 -82 -9 -85 -11 -4 -2 -34
-7 -66 -10 -157 -18 -454 -109 -660 -203 -589 -268 -1069 -777 -1308 -1387
-31 -80 -81 -233 -92 -282 -2 -10 -8 -33 -14 -51 -5 -18 -10 -35 -10 -37 0 -3
-2 -18 -5 -33 -15 -72 -19 -96 -35 -217 -14 -100 -18 -180 -15 -350 1 -121 5
-236 9 -255 3 -19 13 -78 21 -130 129 -798 646 -1501 1373 -1865 258 -129 557
-222 811 -251 30 -3 77 -10 104 -14 50 -8 470 -5 516 3 14 3 45 8 70 11 432
63 838 229 1176 483 429 321 729 735 903 1248 30 90 74 258 85 325 3 19 8 49
11 65 24 141 30 218 30 410 0 99 -3 214 -7 255 -41 409 -179 801 -406 1150
-49 76 -129 186 -157 216 -5 6 -30 35 -55 65 -73 87 -216 225 -320 308 -197
158 -396 276 -665 391 -92 40 -366 119 -465 134 -19 3 -44 7 -55 10 -11 2 -45
7 -75 11 -30 4 -64 9 -75 12 -23 5 -451 14 -456 9z"/>
</g>
</svg>
